# xmcd
#
# Track frame offsets:
#	150
#	8325
#	26475
#	44475
#	60112
#	72375
#	90075
#	108450
#	119625
#	136087
#	155287
#
# Disc length: 2315 seconds
#
# Revision: 1
# Processed by: cddbd v1.5.1PL0 Copyright (c) Steve Scherf et al.
# Submitted via: CDex 1.50Beta5
#
DISCID=7c09090b
DTITLE=H2O - みゆきのLovelyコレクション
DYEAR=1989
DGENRE=Pop
TTITLE0=H2O/10%の雨予報
TTITLE1=H2O/想い出がいっぱい
TTITLE2=TAKAO&THE VIEW/ロック・オン
TTITLE3=スマート・ルッキン/ちょっとまってMake Love
TTITLE4=Virgin VS/サントワマミー
TTITLE5=H2O/10%の雨予報
TTITLE6=河合美智子/サマー・ホリデイ
TTITLE7=Virgin VS/夢のラジオシティ
TTITLE8=イミテーション/ケ・セラ・セラ
TTITLE9=小林泉美/ジプシー・ラブ
TTITLE10=H2O/Good-byeシーズン
EXTD=
EXTT0=
EXTT1=
EXTT2=
EXTT3=
EXTT4=
EXTT5=
EXTT6=
EXTT7=
EXTT8=
EXTT9=
EXTT10=
PLAYORDER=
